<?xml version="1.0" encoding="UTF-8"?>
<svg width="63px" height="57px" viewBox="0 0 63 57" version="1.1" xmlns="http://www.w3.org/2000/svg" xmlns:xlink="http://www.w3.org/1999/xlink">
    <!-- Generator: Sketch 49.1 (51147) - http://www.bohemiancoding.com/sketch -->
    <title>Group</title>
    <desc>Created with Sketch.</desc>
    <defs>
        <linearGradient x1="108.63338%" y1="13.818022%" x2="46.9265964%" y2="78.7761408%" id="linearGradient-1">
            <stop stop-color="#0052CC" offset="18%"></stop>
            <stop stop-color="#2684FF" offset="100%"></stop>
        </linearGradient>
    </defs>
    <g id="Page-1" stroke="none" stroke-width="1" fill="none" fill-rule="evenodd">
        <g id="Bitbucket-blue-(1)" transform="translate(-1.000000, -6.000000)">
            <g id="Group" transform="translate(0.000000, 6.000000)">
                <polygon id="Shape" points="25.7 37.51 38.75 37.51 41.9 19.12 22.23 19.12"></polygon>
                <path d="M3,0.26 C2.40916454,0.252379675 1.84519911,0.506412548 1.45938714,0.95395443 C1.07357517,1.40149631 0.905409324,1.99673573 1,2.58 L9.49,54.12 C9.7083501,55.4218953 10.8299664,56.3790642 12.15,56.39 L52.88,56.39 C53.8707856,56.402752 54.7215432,55.6881156 54.88,54.71 L63.37,2.59 C63.4645907,2.00673573 63.2964248,1.41149631 62.9106129,0.96395443 C62.5248009,0.516412548 61.9608355,0.262379675 61.37,0.27 L3,0.26 Z M38.75,37.51 L25.75,37.51 L22.23,19.12 L41.9,19.12 L38.75,37.51 Z" id="Shape" fill="#2684FF" fill-rule="nonzero"></path>
                <path d="M60.67,19.12 L41.9,19.12 L38.75,37.51 L25.75,37.51 L10.4,55.73 C10.8865272,56.1507026 11.5068276,56.3846445 12.15,56.39 L52.89,56.39 C53.8807856,56.402752 54.7315432,55.6881156 54.89,54.71 L60.67,19.12 Z" id="Shape" fill="url(#linearGradient-1)" fill-rule="nonzero"></path>
            </g>
        </g>
    </g>
</svg>