<?xml version="1.0" encoding="UTF-8"?>
<svg width="46px" height="47px" viewBox="0 0 46 47" version="1.1" xmlns="http://www.w3.org/2000/svg" xmlns:xlink="http://www.w3.org/1999/xlink">
    <!-- Generator: Sketch 49.1 (51147) - http://www.bohemiancoding.com/sketch -->
    <title>Page 1</title>
    <desc>Created with Sketch.</desc>
    <defs>
        <polygon id="path-1" points="0.463029268 0.393488372 1.02060503 0.393488372 1.02060503 0.957686019 0.463029268 0.957686019"></polygon>
        <polygon id="path-3" points="0.455007317 0.0805395349 13.9340732 0.0805395349 13.9340732 13.4915163 0.455007317 13.4915163"></polygon>
    </defs>
    <g id="Page-1" stroke="none" stroke-width="1" fill="none" fill-rule="evenodd">
        <g transform="translate(0.000000, -1.000000)">
            <g id="Group-3" transform="translate(38.707317, 0.164874)">
                <mask id="mask-2" fill="white">
                    <use xlink:href="#path-1"></use>
                </mask>
                <g id="Clip-2"></g>
            </g>
            <path d="M14.8467805,47.6067349 C23.0336585,47.6067349 29.693561,40.9799442 29.693561,32.835014 L29.6946829,8.62459535 C29.6946829,6.00468837 30.774561,3.63036279 32.5152683,1.92022326 L22.954561,1.92022326 C19.2392195,1.92022326 16.215561,4.92747907 16.215561,8.62459535 L16.215561,32.835014 C16.215561,38.0340837 11.9650488,42.2636651 6.73956098,42.2636651 C5.313,42.2636651 3.9604878,41.9477581 2.74597561,41.3845953 C5.43865854,45.1481302 9.85970732,47.6067349 14.8467805,47.6067349" id="Fill-4" fill="#121C37"></path>
            <g id="Group-8" transform="translate(31.975610, 1.839293)">
                <mask id="mask-4" fill="white">
                    <use xlink:href="#path-3"></use>
                </mask>
                <g id="Clip-7"></g>
                <path d="M13.9341293,6.78546977 C13.9341293,3.08835349 10.9110317,0.0805395349 7.19456829,0.0805395349 C3.47866585,0.0805395349 0.456129268,3.08835349 0.456129268,6.78546977 L0.455007317,13.4915163 L7.19456829,13.4915163 C10.9110317,13.4915163 13.9341293,10.4831442 13.9341293,6.78546977" id="Fill-6" fill="#121C37" mask="url(#mask-4)"></path>
            </g>
            <path d="M13.4794024,32.8351256 L13.4782805,18.1259163 C5.93091463,18.8146605 0.000280487805,25.148986 0.000280487805,32.8351256 C0.000841463415,36.5328 3.02393902,39.540614 6.73928049,39.540614 C10.4557439,39.540614 13.4794024,36.5328 13.4794024,32.8351256" id="Fill-9" fill="#121C37"></path>
        </g>
    </g>
</svg>