<?xml version="1.0" encoding="UTF-8"?>
<svg width="168px" height="35px" viewBox="0 0 168 35" version="1.1" xmlns="http://www.w3.org/2000/svg" xmlns:xlink="http://www.w3.org/1999/xlink">
    <!-- Generator: Sketch 48.2 (47327) - http://www.bohemiancoding.com/sketch -->
    <title>Page 1</title>
    <desc>Created with Sketch.</desc>
    <defs>
        <polygon id="path-1" points="0 34.2736154 167.925962 34.2736154 167.925962 0.000538461538 0 0.000538461538"></polygon>
    </defs>
    <g id="Home" stroke="none" stroke-width="1" fill="none" fill-rule="evenodd" transform="translate(-218.000000, -25.000000)">
        <g id="Page-1" transform="translate(218.000000, 25.000000)">
            <path d="M0.000538461538,20.6280577 L2.48015385,17.5938269 C4.14534615,19.6170962 6.42842308,20.6280577 8.41938462,20.6280577 C10.9663077,20.6280577 12.2720769,19.5188269 12.2720769,17.8213269 C12.2720769,15.7967115 10.7388077,15.1451731 7.80015385,14.1005577 C4.27457692,12.8594038 0.782653846,11.2938269 0.782653846,7.05075 C0.782653846,3.42825 4.11303846,0.587865385 8.12726923,0.587865385 C10.8680385,0.555557692 13.4459231,1.56651923 15.7963077,3.42825 L13.4459231,6.52709615 C11.5532308,4.96151923 9.69419231,4.14575 8.12726923,4.14575 C6.33015385,4.14575 4.89515385,5.12305769 4.8615,6.85555769 C4.82919231,8.55036538 6.39611538,9.13998077 9.20553846,10.2169038 C13.1861154,11.7838269 16.3845769,12.8594038 16.3845769,17.3326731 C16.3845769,22.1290192 12.1078462,24.2842115 8.38842308,24.2842115 C5.41746154,24.2842115 2.41553846,23.1399808 0.000538461538,20.6280577" id="Fill-1" fill="#121C37"></path>
            <path d="M31.6351538,16.1570769 C31.6351538,13.3180385 29.7411154,11.1628462 27.0016923,11.1628462 C24.4547692,11.1628462 22.4301538,13.0891923 22.4301538,16.1570769 C22.4301538,18.9624615 24.2905385,20.9547692 27.0016923,20.9547692 C29.5795769,20.9547692 31.6351538,19.0284231 31.6351538,16.1570769 Z M35.1580385,8.09496154 L35.1580385,30.4855385 L31.5032308,30.4855385 L31.5032308,22.064 L31.4722692,22.064 C30.2970769,23.5003462 28.5995769,24.2838077 26.4120769,24.2838077 C22.0074615,24.2838077 18.7093846,21.0516923 18.7093846,16.1247692 C18.7093846,11.3270769 22.0074615,7.86611538 26.3797692,7.86611538 C28.5013077,7.86611538 30.2634231,8.61592308 31.4722692,10.0522692 L31.5032308,10.0522692 L31.5032308,8.09496154 L35.1580385,8.09496154 Z" id="Fill-3" fill="#121C37"></path>
            <path d="M53.3471346,8.09455769 L53.3471346,24.02225 L49.6909808,24.02225 L49.6909808,21.9330192 C48.4188654,23.4676346 46.6244423,24.2834038 44.7627115,24.2834038 C41.2398269,24.2834038 38.7911731,22.5226346 38.7911731,17.7882115 L38.7911731,8.09455769 L42.4459808,8.09455769 L42.4459808,16.8109038 C42.4459808,19.9743654 43.4246346,20.9557115 45.6121346,20.9557115 C47.7336731,20.9557115 49.6909808,19.1612885 49.6909808,15.7326346 L49.6909808,8.09455769 L53.3471346,8.09455769 Z" id="Fill-5" fill="#121C37"></path>
            <path d="M69.1881346,16.1570769 C69.1881346,13.3180385 67.2604423,11.1628462 64.65025,11.1628462 C62.1046731,11.1628462 60.0787115,13.0891923 60.0787115,16.1570769 C60.0787115,18.9624615 61.9404423,20.9547692 64.65025,20.9547692 C67.1298654,20.9547692 69.1881346,19.0284231 69.1881346,16.1570769 Z M72.6787115,8.09496154 L72.6787115,24.0226538 L69.1881346,24.0226538 L69.1881346,21.9011154 L69.1221731,21.9011154 C67.9792885,23.4343846 66.2494808,24.2838077 64.0619808,24.2838077 C59.6560192,24.2838077 56.3606346,21.0516923 56.3606346,16.1247692 C56.3606346,11.3270769 59.6560192,7.86611538 64.0296731,7.86611538 C66.0542885,7.86611538 67.78275,8.61592308 68.9565962,10.0213077 L69.0239038,10.0213077 L69.0239038,8.09496154 L72.6787115,8.09496154 Z" id="Fill-7" fill="#121C37"></path>
            <path d="M88.6140769,16.1570769 C88.6140769,13.3180385 86.7200385,11.1628462 83.9806154,11.1628462 C81.4323462,11.1628462 79.3767692,13.0891923 79.3767692,16.1570769 C79.3767692,18.9624615 81.2694615,20.9547692 83.9456154,20.9547692 C86.5585,20.9547692 88.6140769,19.0284231 88.6140769,16.1570769 Z M92.1073462,0.000538461538 L92.1073462,24.0226538 L88.6140769,24.0226538 L88.6140769,21.9011154 L88.5481154,21.9011154 C87.3742692,23.4343846 85.6431154,24.2838077 83.391,24.2838077 C78.9863846,24.2838077 75.656,21.0516923 75.656,16.1247692 C75.656,11.3270769 78.9863846,7.86611538 83.3586923,7.86611538 C85.4465769,7.86611538 87.2100385,8.61592308 88.4175385,10.0213077 L88.4835,10.0213077 L88.4835,0.000538461538 L92.1073462,0.000538461538 Z" id="Fill-9" fill="#121C37"></path>
            <mask id="mask-2" fill="white">
                <use xlink:href="#path-1"></use>
            </mask>
            <g id="Clip-12"></g>
            <polygon id="Fill-11" fill="#5F9267" mask="url(#mask-2)" points="96.4559615 24.0226538 100.112115 24.0226538 100.112115 0.000538461538 96.4559615 0.000538461538"></polygon>
            <path d="M128.617462,20.1797885 C127.769385,20.6361346 126.887654,20.8649808 126.268423,20.8649808 C125.223808,20.8649808 124.735154,20.2767115 124.735154,18.6451731 L124.735154,11.2049808 L129.402269,11.2049808 L129.402269,8.10344231 L124.735154,8.10344231 L124.735154,2.42671154 L121.079,2.81844231 L121.079,8.10344231 L120.552654,8.10209615 C116.909962,8.09671154 113.829962,9.93555769 112.588808,13.3601731 L110.398615,19.3667115 L110.360923,19.4622885 L106.154192,8.10344231 L102.273231,8.10344231 L108.578615,23.9692115 L107.1665,27.5351731 C106.299577,29.73075 104.179385,31.1711346 101.818231,31.1711346 L101.818231,34.2726731 L102.345923,34.2740192 C105.987269,34.28075 109.240923,32.0017115 110.480731,28.5770962 L112.533615,22.9151731 C112.531821,22.9115833 113.618167,19.9437628 115.792654,14.0117115 C116.660923,11.8161346 118.717846,11.2049808 121.079,11.2049808 L121.079,19.0045962 C121.079,22.5638269 122.7765,24.2936346 125.515923,24.2936346 C127.605154,24.2936346 128.617462,23.8669038 129.563808,23.3459423 L128.617462,20.1797885 Z" id="Fill-13" fill="#5F9267" mask="url(#mask-2)"></path>
            <path d="M132.174808,24.0226538 L135.830962,24.0226538 L135.830962,8.09496154 L132.174808,8.09496154 L132.174808,24.0226538 Z M131.552885,3.29592308 C131.552885,1.99015385 132.631154,0.882269231 134.001538,0.882269231 C135.373269,0.882269231 136.481154,1.99015385 136.481154,3.29592308 C136.481154,4.634 135.373269,5.74457692 134.001538,5.74457692 C132.631154,5.74457692 131.552885,4.634 131.552885,3.29592308 Z" id="Fill-14" fill="#5F9267" mask="url(#mask-2)"></path>
            <path d="M139.228923,16.0900385 C139.228923,11.1954231 142.654885,7.86638462 147.486231,7.86638462 C149.965846,7.86638462 152.577385,8.87869231 154.176615,10.8386923 L151.697,12.9898462 C150.781615,11.9115769 149.409885,11.1631154 147.681423,11.1631154 C144.842385,11.1631154 142.948346,13.1540769 142.948346,16.0604231 C142.948346,18.9950385 144.874692,20.9550385 147.681423,20.9550385 C149.443538,20.9550385 150.879885,20.1715769 151.729308,19.2575385 L154.242577,21.4773462 C152.870846,23.0442692 150.423538,24.2840769 147.354308,24.2840769 C142.654885,24.2840769 139.228923,20.9550385 139.228923,16.0900385" id="Fill-15" fill="#5F9267" mask="url(#mask-2)"></path>
            <path d="M155.554942,21.9662692 L157.381673,19.2241538 C158.655135,20.4666538 160.025519,21.0845385 161.982827,21.0845385 C163.388212,21.0845385 164.205327,20.4666538 164.205327,19.5189615 C164.205327,18.7018462 163.159365,18.3114615 161.071481,17.5939615 C158.459942,16.6785769 156.207827,15.5047308 156.207827,12.3708846 C156.207827,9.76069231 158.555519,7.86530769 161.821288,7.86530769 C163.844558,7.86530769 165.672635,8.42126923 167.43475,9.85626923 L165.609365,12.7289615 C164.333212,11.5214615 162.865904,11.0328077 161.626096,11.0328077 C160.908596,11.0328077 159.894942,11.4231923 159.894942,12.4031923 C159.894942,13.1866538 160.874942,13.7412692 162.409558,14.3281923 C165.803212,15.6662692 167.92475,16.2881923 167.92475,19.453 C167.92475,22.1291538 166.032058,24.2843462 161.982827,24.2843462 C159.404942,24.2843462 157.220135,23.4349231 155.554942,21.9662692" id="Fill-16" fill="#5F9267" mask="url(#mask-2)"></path>
        </g>
    </g>
</svg>